<?xml version="1.0" standalone="no"?>
<!DOCTYPE svg PUBLIC "-//W3C//DTD SVG 20010904//EN"
 "http://www.w3.org/TR/2001/REC-SVG-20010904/DTD/svg10.dtd">
<svg version="1.0" xmlns="http://www.w3.org/2000/svg"
 width="24.000000pt" height="24.000000pt" viewBox="0 0 24.000000 24.000000"
 preserveAspectRatio="xMidYMid meet">
<metadata>
Created by potrace 1.16, written by Peter Selinger 2001-2019
</metadata>
<g transform="translate(0.000000,24.000000) scale(0.004800,-0.004800)"
fill="#000000" stroke="none">
<path d="M2292 4983 c-19 -14 -30 -14 -75 -4 -38 8 -72 9 -122 1 -39 -5 -92
-10 -118 -10 -26 0 -64 -7 -85 -16 -20 -8 -68 -22 -106 -30 -38 -8 -74 -18
-80 -23 -6 -5 -34 -16 -61 -24 -28 -8 -68 -24 -90 -36 -22 -11 -45 -21 -51
-21 -15 0 -237 -114 -294 -151 -25 -16 -57 -35 -71 -41 -14 -7 -38 -23 -55
-36 -16 -13 -65 -50 -110 -82 -85 -62 -346 -313 -431 -415 -65 -78 -158 -211
-215 -309 -38 -65 -97 -180 -98 -189 0 -5 -8 -21 -19 -35 -10 -15 -23 -43 -30
-63 -6 -20 -20 -53 -31 -74 -11 -22 -20 -45 -20 -52 0 -7 -11 -41 -24 -75 -13
-35 -29 -85 -34 -113 -6 -27 -18 -77 -26 -110 -38 -149 -39 -173 -43 -555 -3
-324 -1 -391 12 -429 8 -24 15 -65 15 -90 0 -25 11 -77 25 -116 13 -38 25 -84
25 -100 0 -17 9 -48 20 -70 11 -21 23 -55 26 -74 4 -20 17 -56 30 -81 13 -25
24 -49 24 -55 0 -14 116 -242 151 -295 16 -25 35 -59 43 -76 8 -17 22 -36 30
-43 8 -7 30 -36 47 -64 18 -29 58 -81 88 -117 103 -121 366 -376 440 -426 20
-13 54 -36 75 -52 185 -129 465 -273 591 -303 22 -5 56 -16 75 -23 19 -8 73
-17 120 -21 46 -4 103 -14 125 -22 22 -8 110 -18 201 -24 94 -5 180 -15 204
-24 58 -20 196 -20 246 1 26 11 93 20 199 26 113 6 173 14 205 27 25 10 73 21
108 25 34 3 73 13 86 21 13 9 52 20 87 26 35 6 74 17 87 25 12 8 41 19 65 23
73 16 238 88 346 153 34 21 66 38 70 38 3 0 17 10 31 21 14 11 55 40 92 64
154 103 454 405 564 569 113 169 264 437 264 470 0 6 11 32 25 58 14 26 25 55
25 65 0 10 11 42 25 71 14 30 25 63 25 73 0 11 10 48 21 82 47 137 52 195 52
647 0 493 -3 520 -89 770 -9 25 -22 65 -29 91 -7 25 -22 63 -34 84 -12 22 -21
45 -21 51 0 17 -110 230 -154 298 -21 33 -41 67 -44 76 -4 9 -17 30 -30 46
-13 16 -49 65 -82 109 -62 86 -327 361 -425 442 -33 27 -86 66 -117 86 -31 21
-60 42 -63 47 -4 6 -21 17 -38 25 -18 8 -52 28 -77 44 -53 35 -300 161 -315
161 -5 0 -28 9 -50 19 -57 28 -161 61 -222 71 -29 4 -74 15 -100 23 -53 17
-346 42 -363 32 -6 -4 -22 0 -35 9 -36 24 -379 23 -413 -1z m237 -1468 c30
-15 61 -68 61 -103 0 -12 -5 -33 -11 -49 -5 -15 -154 -172 -330 -348 -215
-216 -319 -328 -319 -342 0 -49 -24 -48 872 -53 l839 -5 40 -42 c48 -52 51
-87 12 -135 -15 -18 -34 -37 -42 -42 -9 -5 -362 -10 -835 -10 -705 -1 -825 -4
-851 -16 -65 -33 -62 -37 282 -381 175 -175 323 -331 330 -346 41 -94 -30
-184 -131 -168 -38 7 -74 40 -464 429 -233 231 -442 443 -465 470 -41 49 -42
51 -42 126 0 53 5 84 16 101 29 44 898 904 926 916 38 16 78 16 112 -2z"/>
</g>
</svg>
