<?xml version="1.0" standalone="no"?>
<!DOCTYPE svg PUBLIC "-//W3C//DTD SVG 20010904//EN"
 "http://www.w3.org/TR/2001/REC-SVG-20010904/DTD/svg10.dtd">
<svg version="1.0" xmlns="http://www.w3.org/2000/svg"
 width="24.000000pt" height="24.000000pt" viewBox="0 0 24.000000 24.000000"
 preserveAspectRatio="xMidYMid meet">
<metadata>
Created by potrace 1.16, written by Peter Selinger 2001-2019
</metadata>
<g transform="translate(0.000000,24.000000) scale(0.004800,-0.004800)"
fill="#000000" stroke="none">
<path d="M2137 4990 c-16 -5 -70 -12 -120 -16 -51 -3 -108 -13 -127 -21 -19
-8 -66 -21 -104 -29 -38 -8 -74 -18 -80 -23 -6 -5 -31 -14 -56 -21 -25 -6 -60
-20 -78 -31 -18 -10 -38 -19 -44 -19 -14 0 -252 -116 -288 -141 -14 -9 -47
-30 -75 -47 -160 -100 -276 -193 -444 -361 -166 -166 -263 -284 -360 -441 -15
-25 -36 -58 -46 -75 -32 -52 -124 -235 -136 -273 -7 -21 -20 -53 -30 -72 -11
-19 -19 -43 -19 -53 0 -10 -9 -36 -20 -57 -11 -22 -27 -70 -34 -107 -8 -38
-22 -85 -30 -105 -9 -21 -16 -57 -16 -81 0 -24 -7 -66 -15 -93 -21 -70 -22
-755 -1 -811 8 -21 17 -70 19 -108 3 -39 15 -94 26 -123 12 -29 21 -69 21 -88
0 -19 9 -53 20 -76 11 -23 23 -57 26 -77 4 -20 17 -56 30 -81 13 -25 24 -50
24 -56 0 -15 114 -237 151 -294 16 -25 36 -59 44 -77 8 -17 20 -35 26 -39 6
-3 30 -36 54 -73 24 -36 66 -93 95 -126 67 -77 299 -304 371 -364 175 -143
455 -306 619 -361 36 -12 94 -26 130 -31 36 -4 85 -17 110 -28 25 -12 67 -21
94 -21 26 0 74 -7 105 -15 31 -8 141 -21 245 -29 138 -11 193 -20 206 -31 19
-17 140 -22 140 -5 0 16 69 28 230 40 85 6 180 17 210 25 30 7 79 17 109 20
29 4 72 15 95 25 22 10 64 21 91 25 28 4 64 15 80 25 17 10 46 21 65 25 19 4
46 16 59 26 13 11 31 19 40 19 9 0 34 12 56 25 22 14 48 25 58 25 16 0 55 17
162 73 61 31 214 134 275 185 151 126 374 364 456 486 115 171 264 436 264
469 0 5 11 33 24 61 30 65 54 136 73 211 8 33 21 76 30 95 39 90 46 182 50
624 2 268 0 433 -6 440 -6 7 -13 43 -17 81 -4 39 -13 83 -21 98 -8 16 -21 60
-29 99 -8 38 -21 79 -28 91 -8 12 -17 38 -21 57 -4 19 -18 55 -31 80 -13 25
-24 50 -24 56 0 15 -114 237 -151 294 -16 25 -34 56 -41 70 -7 14 -24 39 -38
57 -14 17 -36 48 -50 68 -52 76 -125 159 -258 293 -150 152 -227 219 -314 275
-31 21 -60 42 -63 47 -4 6 -21 17 -38 25 -18 8 -52 28 -77 44 -49 32 -274 146
-355 179 -90 37 -179 64 -240 73 -33 5 -78 16 -100 23 -35 13 -167 24 -332 29
-29 1 -58 8 -64 15 -17 16 -380 17 -396 1 -10 -10 -50 -9 -113 4 -14 3 -38 1
-53 -3z m446 -1474 c27 -11 767 -747 900 -894 36 -41 37 -44 37 -123 l0 -80
-77 -82 c-42 -45 -250 -254 -462 -465 -298 -295 -394 -385 -422 -394 -93 -27
-171 59 -140 154 8 23 108 130 331 353 229 229 320 326 320 342 0 13 -11 30
-27 40 -25 17 -79 18 -848 18 -451 1 -830 4 -841 8 -12 4 -34 25 -49 47 -35
51 -30 100 15 145 l30 30 846 5 c822 5 846 6 860 24 8 11 14 27 14 35 0 8
-146 162 -324 341 -362 363 -364 366 -327 444 12 24 31 48 44 54 31 15 82 14
120 -2z"/>
</g>
</svg>
